<svg xmlns="http://www.w3.org/2000/svg" width="456" height="47" viewBox="0 0 456.86 47.9">
  <style>
    svg > g:nth-of-type(2) path { fill: #fff; }
    svg > line { stroke: #fff; }

    @media (prefers-color-scheme: light) {
      svg > g:nth-of-type(2) path { fill: #231f20; }
      svg > line { stroke: #000; }
    }
  </style>

  <g>
    <path d="M1,42.31V5.34h7.87V42.31H1Z" style="fill:#fff;"/>
    <path d="M14.89,42.31V5.34h7.13l10.4,20.18V5.34h7.66V42.31h-6.87l-10.67-20.76v20.76h-7.66Z" style="fill:#fff;"/>
    <path d="M44.36,40.89l.95-7.13c2.43,1.37,5.7,2.17,8.03,2.17,2.64,0,4.54-1,4.54-3.7,0-2.32-1.95-3.86-4.91-5.7-4.7-2.59-8.34-5.92-8.34-11.2,0-6.81,4.81-10.62,11.36-10.62,2.85,0,6.02,.63,8.93,1.85l-1,7.13c-2.69-1.27-4.86-1.85-6.92-1.85-2.38,0-4.07,1-4.07,3.43,0,2.22,1.74,3.8,4.75,5.65,4.81,2.59,8.5,5.92,8.5,11.51,0,6.65-5.02,10.56-11.83,10.56-3.59,0-7.02-.74-9.98-2.11Z" style="fill:#fff;"/>
    <path d="M85.61,29.69l-3.49-14.58h-.05l-3.49,14.58-1.48,6.28-1.53,6.34h-8.08L77.21,5.34h9.82l9.72,36.97h-8.13l-1.53-6.34-1.48-6.28Z" style="fill:#ff5151;" />
    <path d="M100.13,42.31V5.34h7.87V42.31h-7.87Z" style="fill:#ff5151;" />
    <path d="M134.52,5.34v7.02h-7.5v29.95h-7.87V12.37h-7.45V5.34h22.82Z" style="fill:#fff;" />
  </g>

  <line x1="155.76" y1="6.71" x2="155.76" y2="43.68"
        style="fill:#fff; stroke:#fff; stroke-miterlimit:10; stroke-width:.5px;" />

  <g>
    <path d="M178.19,6.8h1.54v12.1h-1.54V6.8Z" style="fill:#fff;" />
    <path d="M182.51,10.26h1.06l.38,.96c.17-.19,.38-.36,.63-.52,.44-.29,1.04-.54,1.86-.54,1.82,0,3.36,1.54,3.36,3.75v4.99h-1.44v-4.99c0-1.44-.98-2.4-2.11-2.4-1.36,0-2.31,.94-2.31,2.4v4.99h-1.44V10.26Z" style="fill:#fff;" />
    <path d="M193.08,16.31c.1,.77,.65,1.34,1.73,1.34,.98,0,1.54-.58,1.54-1.25,0-1.94-4.51-.46-4.51-3.75,0-1.33,1.15-2.5,2.88-2.5,1.84,0,2.88,1.06,2.98,2.59h-1.44c-.1-.77-.56-1.25-1.54-1.25-.86,0-1.44,.56-1.44,1.15,0,1.94,4.51,.48,4.51,3.75,0,1.44-1.15,2.59-2.98,2.59-1.92,0-3.07-1.15-3.17-2.69h1.44Z" style="fill:#fff;" />
    <path d="M200.47,11.6h-1.54v-1.34h.67c.71,0,1.06-.35,1.06-1.06v-1.25h1.25v2.31h1.92v1.34h-1.92v4.51c0,.98,.58,1.54,1.44,1.54,.13,0,.25-.02,.35-.04l.13-.06v1.25c-.06,.04-.13,.08-.21,.1-.17,.06-.38,.1-.65,.1-1.33,0-2.5-1.15-2.5-2.88v-4.51Z" style="fill:#fff;" />
    <path d="M206.66,6.89c.54,0,.92,.38,.92,.92s-.38,.9-.92,.9-.9-.38-.9-.9,.38-.92,.9-.92Zm-.71,3.36h1.44v8.65h-1.44V10.26Z" style="fill:#fff;" />
    <path d="M210.56,11.6h-1.54v-1.34h.67c.71,0,1.06-.35,1.06-1.06v-1.25h1.25v2.31h1.92v1.34h-1.92v4.51c0,.98,.58,1.54,1.44,1.54,.13,0,.25-.02,.35-.04l.13-.06v1.25c-.06,.04-.13,.08-.21,.1-.17,.06-.38,.1-.65,.1-1.33,0-2.5-1.15-2.5-2.88v-4.51Z" style="fill:#fff;" />
    <path d="M216.03,10.26h1.44v5c0,1.44,.94,2.4,2.11,2.4,1.36,0,2.31-.94,2.31-2.4v-5h1.44v8.65h-1.06l-.38-.96c-.17,.21-.38,.38-.63,.54-.44,.29-1.04,.52-1.86,.52-1.83,0-3.36-1.54-3.36-3.75v-5Z" style="fill:#fff;" />
    <path d="M226.5,11.6h-1.54v-1.34h.67c.71,0,1.06-.35,1.06-1.06v-1.25h1.25v2.31h1.92v1.34h-1.92v4.51c0,.98,.58,1.54,1.44,1.54,.13,0,.25-.02,.35-.04l.13-.06v1.25c-.06,.04-.13,.08-.21,.1-.17,.06-.38,.1-.65,.1-1.33,0-2.5-1.15-2.5-2.88v-4.51Z" style="fill:#fff;" />
    <path d="M238.99,16.6c-.58,1.25-1.73,2.4-3.65,2.4-2.31,0-4.13-1.83-4.13-4.42s1.94-4.42,4.03-4.42,3.94,1.71,3.94,4.32c0,.25-.04,.42-.06,.56l-.04,.21h-6.34c.1,1.25,1.23,2.4,2.59,2.4,1.13,0,1.83-.65,2.11-1.06h1.54Zm-1.25-2.59c-.21-1.44-1.25-2.5-2.5-2.5s-2.29,1.06-2.5,2.5h4.99Z" style="fill:#fff;" />
    <path d="M245.52,11.6h-1.06v-1.34h1.06v-.67c0-1.73,1.17-2.88,2.5-2.88,.29,0,.5,.04,.65,.1l.21,.1v1.25l-.13-.04c-.08-.02-.21-.06-.35-.06-.86,0-1.44,.56-1.44,1.54v.67h1.92v1.34h-1.92v7.3h-1.44v-7.3Z" style="fill:#fff;" />
    <path d="M249.94,14.58c0-2.59,1.81-4.42,4.03-4.42s4.03,1.82,4.03,4.42-1.81,4.42-4.03,4.42-4.03-1.83-4.03-4.42Zm6.63,0c0-1.84-1.27-3.07-2.59-3.07s-2.59,1.23-2.59,3.07,1.25,3.07,2.59,3.07,2.59-1.23,2.59-3.07Z" style="fill:#fff;" />
    <path d="M259.93,10.26h1.06l.38,.96c.17-.19,.38-.36,.63-.52,.44-.29,1.04-.54,1.86-.54h.19v1.44h-.38c-1.36,0-2.31,.94-2.31,2.4v4.9h-1.44V10.26Z" style="fill:#fff;" />
    <path d="M280.1,14.87c-.67,2.31-2.5,4.13-5.19,4.13-2.98,0-5.67-2.69-5.67-6.15s2.69-6.15,5.67-6.15c2.59,0,4.42,1.82,5.09,4.13h-1.63c-.4-1.54-1.61-2.79-3.46-2.79-2.11,0-4.13,2.02-4.13,4.8s2.02,4.8,4.13,4.8c1.94,0,3.15-1.25,3.55-2.79h1.63Z" style="fill:#fff;" />
    <path d="M281.35,14.58c0-2.59,1.81-4.42,4.03-4.42s4.03,1.82,4.03,4.42-1.81,4.42-4.03,4.42-4.03-1.83-4.03-4.42Zm6.63,0c0-1.84-1.27-3.07-2.59-3.07s-2.59,1.23-2.59,3.07,1.25,3.07,2.59,3.07,2.59-1.23,2.59-3.07Z" style="fill:#fff;" />
    <path d="M291.34,10.26h1.06l.38,.96c.13-.19,.31-.36,.52-.52,.37-.29,.85-.54,1.59-.54,.86,0,1.46,.38,1.84,.77,.23,.23,.42,.48,.56,.77,.17-.29,.36-.54,.61-.77,.44-.38,1.06-.77,1.98-.77,1.54,0,2.88,1.33,2.88,3.55v5.19h-1.44v-5.19c0-1.46-.75-2.21-1.73-2.21s-1.83,.85-1.83,2.21v5.19h-1.44v-5.19c0-1.46-.75-2.21-1.73-2.21s-1.83,.92-1.83,2.21v5.19h-1.44V10.26Z" style="fill:#fff;" />
    <path d="M305.17,10.26h1.06l.38,.96c.17-.19,.4-.36,.65-.52,.44-.29,1.08-.54,1.94-.54,2.23,0,4.03,1.82,4.03,4.42s-1.81,4.42-4.03,4.42c-.86,0-1.5-.29-1.94-.58-.25-.17-.48-.36-.65-.58v4.13h-1.44V10.26Zm6.63,4.32c0-1.84-1.25-3.07-2.69-3.07s-2.69,1.23-2.69,3.07,1.25,3.07,2.69,3.07,2.69-1.23,2.69-3.07Z" style="fill:#fff;" />
    <path d="M315.16,10.26h1.44v5c0,1.44,.94,2.4,2.11,2.4,1.36,0,2.31-.94,2.31-2.4v-5h1.44v8.65h-1.06l-.38-.96c-.17,.21-.38,.38-.63,.54-.44,.29-1.04,.52-1.86,.52-1.82,0-3.36-1.54-3.36-3.75v-5Z" style="fill:#fff;" />
    <path d="M325.63,11.6h-1.54v-1.34h.67c.71,0,1.06-.35,1.06-1.06v-1.25h1.25v2.31h1.92v1.34h-1.92v4.51c0,.98,.58,1.54,1.44,1.54,.13,0,.25-.02,.35-.04l.13-.06v1.25c-.06,.04-.13,.08-.21,.1-.17,.06-.38,.1-.65,.1-1.33,0-2.5-1.15-2.5-2.88v-4.51Z" style="fill:#fff;" />
    <path d="M338.12,16.6c-.58,1.25-1.73,2.4-3.65,2.4-2.31,0-4.13-1.83-4.13-4.42s1.94-4.42,4.03-4.42,3.94,1.71,3.94,4.32c0,.25-.04,.42-.06,.56l-.04,.21h-6.34c.1,1.25,1.23,2.4,2.59,2.4,1.13,0,1.83-.65,2.11-1.06h1.54Zm-1.25-2.59c-.21-1.44-1.25-2.5-2.5-2.5s-2.29,1.06-2.5,2.5h4.99Z" style="fill:#fff;" />
    <path d="M340.23,10.26h1.06l.38,.96c.17-.19,.38-.36,.63-.52,.44-.29,1.04-.54,1.86-.54h.19v1.44h-.38c-1.36,0-2.31,.94-2.31,2.4v4.9h-1.44V10.26Z" style="fill:#fff;" />
    <path d="M351.18,15.35c0,1.46,.86,2.31,2.5,2.31s2.5-.85,2.5-1.92c0-2.98-6.44-1.44-6.44-5.76,0-1.63,1.63-3.27,3.94-3.27,2.09,0,3.75,1.63,3.75,3.65h-1.54c0-1.36-.96-2.31-2.21-2.31-1.44,0-2.4,.94-2.4,1.92,0,2.98,6.44,1.44,6.44,5.76,0,1.73-1.52,3.27-4.03,3.27s-4.03-1.54-4.03-3.65h1.54Z" style="fill:#fff;" />
    <path d="M366.84,15.83c-.4,1.75-1.82,3.17-3.75,3.17-2.23,0-4.03-1.83-4.03-4.42s1.81-4.42,4.03-4.42c1.92,0,3.34,1.42,3.75,3.17h-1.44c-.31-.96-1.17-1.82-2.31-1.82-1.34,0-2.59,1.23-2.59,3.07s1.25,3.07,2.59,3.07c1.13,0,2-.86,2.31-1.83h1.44Z" style="fill:#fff;" />
    <path d="M369.38,6.89c.54,0,.92,.38,.92,.92s-.38,.9-.92,.9-.9-.38-.9-.9,.38-.92,.9-.92Zm-.71,3.36h1.44v8.65h-1.44V10.26Z" style="fill:#fff;" />
    <path d="M379.81,16.6c-.58,1.25-1.73,2.4-3.65,2.4-2.31,0-4.13-1.83-4.13-4.42s1.94-4.42,4.03-4.42,3.94,1.71,3.94,4.32c0,.25-.04,.42-.06,.56l-.04,.21h-6.34c.1,1.25,1.23,2.4,2.59,2.4,1.13,0,1.83-.65,2.11-1.06h1.54Zm-1.25-2.59c-.21-1.44-1.25-2.5-2.5-2.5s-2.29,1.06-2.5,2.5h4.99Z" style="fill:#fff;" />
    <path d="M381.92,10.26h1.06l.38,.96c.17-.19,.38-.36,.63-.52,.44-.29,1.04-.54,1.86-.54,1.82,0,3.36,1.54,3.36,3.75v4.99h-1.44v-4.99c0-1.44-.98-2.4-2.11-2.4-1.36,0-2.31,.94-2.31,2.4v4.99h-1.44V10.26Z" style="fill:#fff;" />
    <path d="M398.83,15.83c-.4,1.75-1.82,3.17-3.75,3.17-2.23,0-4.03-1.83-4.03-4.42s1.81-4.42,4.03-4.42c1.92,0,3.34,1.42,3.75,3.17h-1.44c-.31-.96-1.17-1.82-2.31-1.82-1.34,0-2.59,1.23-2.59,3.07s1.25,3.07,2.59,3.07c1.13,0,2-.86,2.31-1.83h1.44Z" style="fill:#fff;" />
    <path d="M407.86,16.6c-.58,1.25-1.73,2.4-3.65,2.4-2.31,0-4.13-1.83-4.13-4.42s1.94-4.42,4.03-4.42,3.94,1.71,3.94,4.32c0,.25-.04,.42-.06,.56l-.04,.21h-6.34c.1,1.25,1.23,2.4,2.59,2.4,1.13,0,1.83-.65,2.11-1.06h1.54Zm-1.25-2.59c-.21-1.44-1.25-2.5-2.5-2.5s-2.29,1.06-2.5,2.5h4.99Z" style="fill:#fff;" />
    <path d="M409.58,20.44c.13-.13,.25-.27,.35-.4,.17-.25,.36-.6,.42-1.04-.6,0-.96-.37-.96-.96s.37-.96,.96-.96,.96,.37,.96,.96c0,.92-.38,1.59-.77,2.04-.23,.25-.48,.48-.77,.65l-.19-.29Z" style="fill:#fff;" />
    <path d="M181.26,29.85h1.34l4.61,12.1h-1.63l-1.15-2.98h-4.99l-1.15,2.98h-1.63l4.61-12.1Zm2.69,7.78l-2.02-5.28-2.02,5.28h4.03Z" style="fill:#fff;" />
    <path d="M188.46,33.31h1.06l.38,.96c.17-.19,.38-.37,.63-.52,.44-.29,1.04-.54,1.86-.54h.19v1.44h-.38c-1.36,0-2.31,.94-2.31,2.4v4.9h-1.44v-8.65Z" style="fill:#fff;" />
    <path d="M194.9,34.65h-1.54v-1.34h.67c.71,0,1.06-.35,1.06-1.06v-1.25h1.25v2.31h1.92v1.34h-1.92v4.51c0,.98,.58,1.54,1.44,1.54,.13,0,.25-.02,.35-.04l.13-.06v1.25c-.06,.04-.13,.08-.21,.1-.17,.06-.38,.1-.65,.1-1.33,0-2.5-1.15-2.5-2.88v-4.51Z" style="fill:#fff;" />
    <path d="M201.09,29.95c.54,0,.92,.38,.92,.92s-.38,.9-.92,.9-.9-.38-.9-.9,.38-.92,.9-.92Zm-.71,3.36h1.44v8.65h-1.44v-8.65Z" style="fill:#fff;" />
    <path d="M204.6,34.65h-1.06v-1.34h1.06v-.67c0-1.73,1.17-2.88,2.5-2.88,.29,0,.5,.04,.65,.1l.21,.1v1.25l-.13-.04c-.08-.02-.21-.06-.35-.06-.86,0-1.44,.56-1.44,1.54v.67h4.9v8.65h-1.44v-7.3h-3.46v7.3h-1.44v-7.3Zm5.61-4.71c.54,0,.92,.38,.92,.92s-.38,.9-.92,.9-.9-.38-.9-.9,.38-.92,.9-.92Z" style="fill:#fff;" />
    <path d="M220.64,38.88c-.4,1.75-1.82,3.17-3.75,3.17-2.23,0-4.03-1.83-4.03-4.42s1.81-4.42,4.03-4.42c1.92,0,3.34,1.42,3.75,3.17h-1.44c-.31-.96-1.17-1.82-2.31-1.82-1.34,0-2.59,1.23-2.59,3.07s1.25,3.07,2.59,3.07c1.13,0,2-.86,2.31-1.83h1.44Z" style="fill:#fff;" />
    <path d="M223.18,29.95c.54,0,.92,.38,.92,.92s-.38,.9-.92,.9-.9-.38-.9-.9,.38-.92,.9-.92Zm-.71,3.36h1.44v8.65h-1.44v-8.65Z" style="fill:#fff;" />
    <path d="M231.5,40.99c-.19,.21-.4,.38-.65,.54-.44,.29-1.08,.52-1.94,.52-1.73,0-2.88-1.15-2.88-2.59,0-1.63,1.15-2.79,5.48-2.79v-.48c0-.86-.75-1.63-1.82-1.63s-1.52,.48-1.73,1.25h-1.54c.21-1.44,1.34-2.59,3.27-2.59s3.27,1.36,3.27,2.98v5.76h-1.06l-.38-.96Zm0-2.98c-3.46,0-4.03,.58-4.03,1.54,0,.6,.58,1.15,1.44,1.15,1.54,0,2.59-1.06,2.59-2.02v-.67Z" style="fill:#fff;" />
    <path d="M235.44,29.85h1.44v12.1h-1.44v-12.1Z" style="fill:#fff;" />
    <path d="M243.89,29.85h1.54v12.1h-1.54v-12.1Z" style="fill:#fff;" />
    <path d="M248.21,33.31h1.06l.38,.96c.17-.19,.38-.37,.63-.52,.44-.29,1.04-.54,1.86-.54,1.82,0,3.36,1.54,3.36,3.75v4.99h-1.44v-4.99c0-1.44-.98-2.4-2.11-2.4-1.36,0-2.31,.94-2.31,2.4v4.99h-1.44v-8.65Z" style="fill:#fff;" />
    <path d="M258.58,34.65h-1.54v-1.34h.67c.71,0,1.06-.35,1.06-1.06v-1.25h1.25v2.31h1.92v1.34h-1.92v4.51c0,.98,.58,1.54,1.44,1.54,.13,0,.25-.02,.35-.04l.13-.06v1.25c-.06,.04-.13,.08-.21,.1-.17,.06-.38,.1-.65,.1-1.33,0-2.5-1.15-2.5-2.88v-4.51Z" style="fill:#fff;" />
    <path d="M271.07,39.65c-.58,1.25-1.73,2.4-3.65,2.4-2.31,0-4.13-1.83-4.13-4.42s1.94-4.42,4.03-4.42,3.94,1.71,3.94,4.32c0,.25-.04,.42-.06,.56l-.04,.21h-6.34c.1,1.25,1.23,2.4,2.59,2.4,1.13,0,1.83-.65,2.11-1.06h1.54Zm-1.25-2.59c-.21-1.44-1.25-2.5-2.5-2.5s-2.29,1.06-2.5,2.5h4.99Z" style="fill:#fff;" />
    <path d="M273.28,29.85h1.44v12.1h-1.44v-12.1Z" style="fill:#fff;" />
    <path d="M277.41,29.85h1.44v12.1h-1.44v-12.1Z" style="fill:#fff;" />
    <path d="M282.16,29.95c.54,0,.92,.38,.92,.92s-.38,.9-.92,.9-.9-.38-.9-.9,.38-.92,.9-.92Zm-.71,3.36h1.44v8.65h-1.44v-8.65Z" style="fill:#fff;" />
    <path d="M286.73,42.63c.29,.67,.86,1.25,2.11,1.25,1.46,0,2.4-.96,2.4-2.21v-1.15c-.17,.21-.36,.4-.6,.58-.4,.29-1.04,.58-1.9,.58-2.21,0-3.94-1.71-3.94-4.23s1.73-4.23,3.94-4.23c.86,0,1.5,.25,1.9,.54,.23,.15,.42,.33,.6,.52l.38-.96h1.06v8.36c0,2.02-1.54,3.55-3.84,3.55-1.98,0-3.19-1.15-3.55-2.59h1.44Zm4.71-5.19c0-1.73-1.15-2.88-2.59-2.88s-2.59,1.15-2.59,2.88,1.15,2.88,2.59,2.88,2.59-1.15,2.59-2.88Z" style="fill:#fff;" />
    <path d="M302.39,39.65c-.58,1.25-1.73,2.4-3.65,2.4-2.31,0-4.13-1.83-4.13-4.42s1.94-4.42,4.03-4.42,3.94,1.71,3.94,4.32c0,.25-.04,.42-.06,.56l-.04,.21h-6.34c.1,1.25,1.23,2.4,2.59,2.4,1.13,0,1.83-.65,2.11-1.06h1.54Zm-1.25-2.59c-.21-1.44-1.25-2.5-2.5-2.5s-2.29,1.06-2.5,2.5h4.99Z" style="fill:#fff;" />
    <path d="M304.5,33.31h1.06l.38,.96c.17-.19,.38-.37,.63-.52,.44-.29,1.04-.54,1.86-.54,1.82,0,3.36,1.54,3.36,3.75v4.99h-1.44v-4.99c0-1.44-.98-2.4-2.11-2.4-1.36,0-2.31,.94-2.31,2.4v4.99h-1.44v-8.65Z" style="fill:#fff;" />
    <path d="M321.41,38.88c-.4,1.75-1.82,3.17-3.75,3.17-2.23,0-4.03-1.83-4.03-4.42s1.81-4.42,4.03-4.42c1.92,0,3.34,1.42,3.75,3.17h-1.44c-.31-.96-1.17-1.82-2.31-1.82-1.34,0-2.59,1.23-2.59,3.07s1.25,3.07,2.59,3.07c1.13,0,2-.86,2.31-1.83h1.44Z" style="fill:#fff;" />
    <path d="M330.43,39.65c-.58,1.25-1.73,2.4-3.65,2.4-2.31,0-4.13-1.83-4.13-4.42s1.94-4.42,4.03-4.42,3.94,1.71,3.94,4.32c0,.25-.04,.42-.06,.56l-.04,.21h-6.34c.1,1.25,1.23,2.4,2.59,2.4,1.13,0,1.83-.65,2.11-1.06h1.54Zm-1.25-2.59c-.21-1.44-1.25-2.5-2.5-2.5s-2.29,1.06-2.5,2.5h4.99Z" style="fill:#fff;" />
    <path d="M341.77,40.99c-.19,.21-.4,.38-.65,.54-.44,.29-1.08,.52-1.94,.52-1.73,0-2.88-1.15-2.88-2.59,0-1.63,1.15-2.79,5.48-2.79v-.48c0-.86-.75-1.63-1.82-1.63s-1.52,.48-1.73,1.25h-1.54c.21-1.44,1.34-2.59,3.27-2.59s3.27,1.36,3.27,2.98v5.76h-1.06l-.38-.96Zm0-2.98c-3.46,0-4.03,.58-4.03,1.54,0,.6,.58,1.15,1.44,1.15,1.54,0,2.59-1.06,2.59-2.02v-.67Z" style="fill:#fff;" />
    <path d="M345.61,33.31h1.06l.38,.96c.17-.19,.38-.37,.63-.52,.44-.29,1.04-.54,1.86-.54,1.82,0,3.36,1.54,3.36,3.75v4.99h-1.44v-4.99c0-1.44-.98-2.4-2.11-2.4-1.36,0-2.31,.94-2.31,2.4v4.99h-1.44v-8.65Z" style="fill:#fff;" />
    <path d="M361.37,40.99c-.19,.21-.4,.38-.65,.54-.44,.29-1.08,.52-1.94,.52-2.23,0-4.03-1.83-4.03-4.42s1.81-4.42,4.03-4.42c.86,0,1.5,.29,1.94,.58,.25,.17,.46,.36,.65,.58v-4.51h1.44v12.1h-1.06l-.38-.96Zm.19-3.36c0-1.84-1.25-3.07-2.69-3.07s-2.69,1.23-2.69,3.07,1.25,3.07,2.69,3.07,2.69-1.23,2.69-3.07Z" style="fill:#fff;" />
    <path d="M372.22,31.2h-3.65v-1.34h8.84v1.34h-3.65v10.76h-1.54v-10.76Z" style="fill:#fff;" />
    <path d="M384.99,39.65c-.58,1.25-1.73,2.4-3.65,2.4-2.31,0-4.13-1.83-4.13-4.42s1.94-4.42,4.03-4.42,3.94,1.71,3.94,4.32c0,.25-.04,.42-.06,.56l-.04,.21h-6.34c.1,1.25,1.23,2.4,2.59,2.4,1.13,0,1.83-.65,2.11-1.06h1.54Zm-1.25-2.59c-.21-1.44-1.25-2.5-2.5-2.5s-2.29,1.06-2.5,2.5h4.99Z" style="fill:#fff;" />
    <path d="M394.31,38.88c-.4,1.75-1.82,3.17-3.75,3.17-2.23,0-4.03-1.83-4.03-4.42s1.81-4.42,4.03-4.42c1.92,0,3.34,1.42,3.75,3.17h-1.44c-.31-.96-1.17-1.82-2.31-1.82-1.34,0-2.59,1.23-2.59,3.07s1.25,3.07,2.59,3.07c1.13,0,2-.86,2.31-1.83h1.44Z" style="fill:#fff;" />
    <path d="M396.23,29.85h1.44v4.51c.17-.21,.38-.4,.63-.58,.44-.29,1.04-.58,1.86-.58,1.82,0,3.36,1.54,3.36,3.75v4.99h-1.44v-4.99c0-1.44-.98-2.4-2.11-2.4-1.36,0-2.31,.94-2.31,2.4v4.99h-1.44v-12.1Z" style="fill:#fff;" />
    <path d="M405.93,33.31h1.06l.38,.96c.17-.19,.38-.37,.63-.52,.44-.29,1.04-.54,1.86-.54,1.82,0,3.36,1.54,3.36,3.75v4.99h-1.44v-4.99c0-1.44-.98-2.4-2.11-2.4-1.36,0-2.31,.94-2.31,2.4v4.99h-1.44v-8.65Z" style="fill:#fff;" />
    <path d="M415.06,37.63c0-2.59,1.81-4.42,4.03-4.42s4.03,1.82,4.03,4.42-1.81,4.42-4.03,4.42-4.03-1.83-4.03-4.42Zm6.63,0c0-1.84-1.27-3.07-2.59-3.07s-2.59,1.23-2.59,3.07,1.25,3.07,2.59,3.07,2.59-1.23,2.59-3.07Z" style="fill:#fff;" />
    <path d="M425.15,29.85h1.44v12.1h-1.44v-12.1Z" style="fill:#fff;" />
    <path d="M428.6,37.63c0-2.59,1.81-4.42,4.03-4.42s4.03,1.82,4.03,4.42-1.81,4.42-4.03,4.42-4.03-1.83-4.03-4.42Zm6.63,0c0-1.84-1.27-3.07-2.59-3.07s-2.59,1.23-2.59,3.07,1.25,3.07,2.59,3.07,2.59-1.23,2.59-3.07Z" style="fill:#fff;" />
    <path d="M439.94,42.63c.29,.67,.86,1.25,2.11,1.25,1.46,0,2.4-.96,2.4-2.21v-1.15c-.17,.21-.37,.4-.6,.58-.4,.29-1.04,.58-1.9,.58-2.21,0-3.94-1.71-3.94-4.23s1.73-4.23,3.94-4.23c.86,0,1.5,.25,1.9,.54,.23,.15,.42,.33,.6,.52l.38-.96h1.06v8.36c0,2.02-1.54,3.55-3.84,3.55-1.98,0-3.19-1.15-3.55-2.59h1.44Zm4.71-5.19c0-1.73-1.15-2.88-2.59-2.88s-2.59,1.15-2.59,2.88,1.15,2.88,2.59,2.88,2.59-1.15,2.59-2.88Z" style="fill:#fff;" />
    <path d="M448.78,43.88c.86,0,1.23-.38,1.54-1.15l.38-.96-3.36-8.45h1.54l2.59,6.63,2.59-6.63h1.54l-3.75,9.41c-.69,1.75-1.36,2.4-2.5,2.4-.15,0-.27-.02-.4-.04l-.17-.06v-1.15Z" style="fill:#fff;" />
  </g>
</svg>